<svg width="70" height="48" viewBox="0 0 70 48" fill="none" xmlns="http://www.w3.org/2000/svg">
<path fill-rule="evenodd" clip-rule="evenodd" d="M3 2C2.44772 2 2 2.44772 2 3V42.2981L11.4566 15.338C11.7377 14.5365 12.4945 14 13.3439 14H57V9.5C57 8.94772 56.5523 8.5 56 8.5H24.5479C23.5635 8.5 22.6417 8.01702 22.0813 7.20763L18.7743 2.43079C18.5875 2.16099 18.2802 2 17.9521 2H3ZM59 14H67.179C68.5573 14 69.5225 15.3614 69.0663 16.662L58.9649 45.4603C58.9078 45.8314 58.7826 46.18 58.6027 46.493L58.5434 46.662C58.2623 47.4635 57.5055 48 56.6561 48H2.82099C2.54075 48 2.27759 47.9437 2.03998 47.8431C0.853952 47.4428 0 46.3211 0 45V3C0 1.34315 1.34315 0 3 0H17.9521C18.9365 0 19.8583 0.482974 20.4187 1.29237L23.7257 6.06921C23.9125 6.33901 24.2198 6.5 24.5479 6.5H56C57.6569 6.5 59 7.84314 59 9.5V14ZM13.3439 16H67.179L56.6561 46H2.82099L13.3439 16Z" fill="#0C2340"/>
</svg>
