<svg width="632" height="512" viewBox="0 0 632 512" fill="none" xmlns="http://www.w3.org/2000/svg">
<path d="M506.5 203L480 229.5L461.3 210.8C436.3 185.8 395.8 185.8 370.8 210.8C345.8 235.8 345.8 276.3 370.8 301.3L434.8 365.3C446.7 377.2 462.2 383.5 477.8 384C433.5 460.5 350.8 512 256 512C114.6 512 0 397.4 0 256C0 114.6 114.6 0 256 0C379.2 0 482.1 87 506.5 203ZM280 152C280 138.7 269.3 128 256 128C242.7 128 232 138.7 232 152V264C232 277.3 242.7 288 256 288C269.3 288 280 277.3 280 264V152ZM256 384C264.487 384 272.626 380.629 278.627 374.627C284.629 368.626 288 360.487 288 352C288 343.513 284.629 335.374 278.627 329.373C272.626 323.371 264.487 320 256 320C247.513 320 239.374 323.371 233.373 329.373C227.371 335.374 224 343.513 224 352C224 360.487 227.371 368.626 233.373 374.627C239.374 380.629 247.513 384 256 384ZM625 209L497 337C487.6 346.4 472.4 346.4 463.1 337L399.1 273C389.7 263.6 389.7 248.4 399.1 239.1C408.5 229.8 423.7 229.7 433 239.1L480 286.1L591 175C600.4 165.6 615.6 165.6 624.9 175C634.2 184.4 634.3 199.6 624.9 208.9L625 209Z" fill="#A2CFF0"/>
</svg>
