<svg width="123" height="108" viewBox="0 0 123 108" fill="none" xmlns="http://www.w3.org/2000/svg">
<path fill-rule="evenodd" clip-rule="evenodd" d="M82.19 -4.60146e-06C83.41 -0.0100046 84.46 0.399995 85.37 1.27L98.64 13.97C99.5 14.79 99.92 15.88 99.94 17.08C99.96 18.3 99.6 19.41 98.76 20.26L91.7 27.61L72.09 8.67L79.08 1.39C79.94 0.499995 80.98 0.0199954 82.19 -4.60146e-06ZM20.08 68.29C22.48 67.55 25.01 68.9 25.75 71.29C26.49 73.69 25.14 76.22 22.75 76.96C15.77 79.1 11.09 83.24 9.54 87.13C9.13 88.17 8.99 89.12 9.15 89.9C9.27 90.49 9.63 91.03 10.22 91.46C12.77 93.32 18.26 93.8 27.48 91.56C32.94 90.23 38.79 88.43 43.97 86.83C49.26 85.2 53.88 83.77 57.09 83.17C63.01 82.07 68.92 81.32 73.69 81.56C79.95 81.87 84.65 83.88 86.26 88.69C87.3 91.8 87.01 94.5 86.75 96.92C86.66 97.79 86.57 98.6 86.61 99.13C86.61 99.15 87.56 99.08 92.14 98.72C97.44 98.3 102.93 96.21 108.35 94.14C111.13 93.08 113.89 92.03 117.02 91.07C119.42 90.34 121.95 91.7 122.67 94.09C123.4 96.49 122.04 99.02 119.65 99.74C117.22 100.48 114.41 101.56 111.59 102.63C105.55 104.93 99.45 107.26 92.85 107.78C80.78 108.73 77.98 105.32 77.55 99.83C77.45 98.54 77.58 97.29 77.72 95.95C77.88 94.45 78.06 92.77 77.65 91.56C77.47 91.02 75.76 90.74 73.26 90.62C69.27 90.42 64.04 91.1 58.72 92.09C56.07 92.58 51.67 93.94 46.63 95.5C41.36 97.13 35.41 98.96 29.61 100.37C17.47 103.32 9.4 102.07 4.88 98.77C2.34 96.92 0.829999 94.5 0.249999 91.77C-0.290001 89.23 0.0199993 86.49 1.1 83.77C3.56 77.63 10.33 71.27 20.08 68.29ZM41.27 48.45L53.3 60.02L38.59 63.97C38.06 64.07 37.85 63.86 37.94 63.37L41.27 48.45ZM65.87 15.11L85.46 33.98L58.7 62.23L34.72 68.66C33.86 68.83 33.52 68.49 33.66 67.68L39.09 43.37L65.87 15.11Z" fill="black"/>
</svg>
